<svg xmlns="http://www.w3.org/2000/svg" width="28.297" height="29.771" viewBox="0 0 28.297 29.771"><defs><style>.a{fill:#fff;}</style></defs><g transform="translate(0)"><path class="a" d="M35.847,6.1h-.765V4.4a4.406,4.406,0,0,0-4.4-4.4H21.446a4.406,4.406,0,0,0-4.4,4.4V6.1h-.7a4.406,4.406,0,0,0-4.4,4.4v7.1a4.406,4.406,0,0,0,4.4,4.4h.691v5.578a2.2,2.2,0,0,0,2.2,2.2H32.879a2.2,2.2,0,0,0,2.2-2.2V22h.771a4.406,4.406,0,0,0,4.4-4.4V10.5A4.406,4.406,0,0,0,35.847,6.1ZM18.706,4.4A2.739,2.739,0,0,1,21.44,1.666H30.67A2.739,2.739,0,0,1,33.4,4.4V6.1h-14.7Zm14.7,23.188a.535.535,0,0,1-.531.531H19.237a.535.535,0,0,1-.531-.531v-9.2h14.7ZM38.581,17.6a2.739,2.739,0,0,1-2.733,2.733h-.765v-1.95h1.1a.833.833,0,0,0,0-1.666H15.819a.833.833,0,1,0,0,1.666h1.228v1.95h-.7A2.739,2.739,0,0,1,13.616,17.6v-7.1a2.739,2.739,0,0,1,2.733-2.733h19.5a2.739,2.739,0,0,1,2.733,2.733Z" transform="translate(-11.95)"/><path class="a" d="M141.483,339.066H152.09a.833.833,0,1,0,0-1.666H141.483a.833.833,0,1,0,0,1.666Z" transform="translate(-132.709 -316.582)"/><path class="a" d="M153.1,392.6H142.483a.833.833,0,0,0,0,1.666H153.09a.833.833,0,0,0,.006-1.666Z" transform="translate(-133.647 -368.376)"/><path class="a" d="M360.574,151.9h-1.691a.833.833,0,0,0,0,1.666h1.691a.833.833,0,0,0,0-1.666Z" transform="translate(-336.695 -142.527)"/></g></svg>